# xmcd
#
# Track frame offsets: 
#        150
#        34944
#        71641
#        121414
#        153282
#        195377
#        217955
#        242953
#        275373
#        293982
#        324412
#
# Disc length: 4780 seconds
#
# Revision: 4
# Processed by: cddbd v1.5.2PL0 Copyright (c) Steve Scherf et al.
# Submitted via: ExactAudioCopy v0.99pb5
#
DISCID=a112aa0b
DTITLE=Solar Fields - Movements
DYEAR=2009
DGENRE=Ambient
TTITLE0=Sol
TTITLE1=Circles of Motion
TTITLE2=Discovering
TTITLE3=Sky Trees
TTITLE4=The Stones Are Not Too Busy
TTITLE5=Dust
TTITLE6=Das Bungalow
TTITLE7=Feelings (Album Edit)
TTITLE8=Patterns
TTITLE9=The Road to Nothingness
TTITLE10=Breeze
EXTD=Label: Ultimae Records\nCatalog: inre 035\nRelease: 2009-01-19\nh
EXTD=ttp://www.discogs.com/release/1611939
EXTT0=
EXTT1=
EXTT2=
EXTT3=
EXTT4=
EXTT5=
EXTT6=
EXTT7=
EXTT8=
EXTT9=
EXTT10=
PLAYORDER=
